<svg height="511pt" viewBox="0 1 511 511.9996" width="511pt" xmlns="http://www.w3.org/2000/svg"><path d="m27.105469 256 30.71875 196.589844c5.34375 34.199218 34.800781 59.410156 69.410156 59.410156h258.527344c34.613281 0 64.070312-25.210938 69.410156-59.410156l30.722656-196.589844zm126.261719 179.171875c0 9.953125-8.066407 18.023437-18.019532 18.023437s-18.019531-8.070312-18.019531-18.023437v-95.339844c0-9.949219 8.066406-18.019531 18.019531-18.019531s18.019532 8.070312 18.019532 18.019531zm80.769531 0c0 9.953125-8.070313 18.023437-18.019531 18.023437-9.953126 0-18.019532-8.070312-18.019532-18.023437v-95.339844c0-9.949219 8.066406-18.019531 18.019532-18.019531 9.949218 0 18.019531 8.070312 18.019531 18.019531zm80.765625 0c0 9.953125-8.066406 18.023437-18.019532 18.023437-9.949218 0-18.019531-8.070312-18.019531-18.023437v-95.339844c0-9.949219 8.070313-18.019531 18.019531-18.019531 9.953126 0 18.019532 8.070312 18.019532 18.019531zm80.769531 0c0 9.953125-8.066406 18.023437-18.019531 18.023437s-18.019532-8.070312-18.019532-18.023437v-95.339844c0-9.949219 8.066407-18.019531 18.019532-18.019531s18.019531 8.070312 18.019531 18.019531zm0 0" fill="#ff8354"/><path d="m390.054688 498h-267.109376c-26.347656 0-49.792968-13.695312-62.523437-34.582031 9.238281 28.554687 35.972656 48.582031 66.8125 48.582031h258.527344c30.84375 0 57.574219-20.027344 66.816406-48.582031-12.726563 20.886719-36.171875 34.582031-62.523437 34.582031zm0 0" fill="#e0734a"/><path d="m484.15625 256h-455.3125c-15.652344 0-28.34375-12.691406-28.34375-28.34375s12.691406-28.339844 28.34375-28.339844h455.3125c15.652344 0 28.339844 12.6875 28.339844 28.339844.003906 15.652344-12.6875 28.34375-28.339844 28.34375zm0 0" fill="#ff8354"/><path d="m30.230469 276h452.539062l3.125-20h-458.789062zm0 0" fill="#e0734a"/><g fill="#5861c7"><path d="m184.734375 227.929688c0 19.304687-15.648437 34.953124-34.949219 34.953124-19.304687 0-34.953125-15.648437-34.953125-34.953124 0-19.304688 15.648438-34.953126 34.953125-34.953126 19.300782 0 34.949219 15.648438 34.949219 34.953126zm0 0"/><path d="m149.777344 245.9375c-2.335938 0-4.707032-.460938-6.992188-1.425781-9.160156-3.863281-13.453125-14.421875-9.585937-23.582031l88.605469-209.925782c3.867187-9.15625 14.425781-13.449218 23.582031-9.582031 9.160156 3.867187 13.449219 14.421875 9.585937 23.582031l-88.605468 209.925782c-2.902344 6.871093-9.574219 11.007812-16.589844 11.007812zm0 0"/><path d="m398.167969 227.929688c0 19.304687-15.648438 34.953124-34.953125 34.953124-19.300782 0-34.949219-15.648437-34.949219-34.953124 0-19.304688 15.648437-34.953126 34.949219-34.953126 19.304687 0 34.953125 15.648438 34.953125 34.953126zm0 0"/><path d="m363.222656 245.9375c-7.019531 0-13.6875-4.132812-16.589844-11.007812l-88.605468-209.925782c-3.867188-9.160156.425781-19.714844 9.585937-23.582031 9.160157-3.867187 19.714844.421875 23.582031 9.582031l88.605469 209.925782c3.863281 9.160156-.425781 19.71875-9.585937 23.582031-2.285156.964843-4.65625 1.425781-6.992188 1.425781zm0 0"/></g><path d="m383.097656 227.929688c0 10.980468-8.902344 19.882812-19.882812 19.882812-10.980469 0-19.882813-8.902344-19.882813-19.882812 0-10.980469 8.902344-19.882813 19.882813-19.882813 10.980468 0 19.882812 8.902344 19.882812 19.882813zm0 0" fill="#6770e6"/><path d="m245.386719 1.421875c-9.15625-3.867187-19.714844.425781-23.582031 9.582031l-5.277344 12.507813c4.335937-8.117188 14.21875-11.738281 22.859375-8.089844 9.160156 3.867187 13.449219 14.421875 9.585937 23.582031l6-14c3.863282-9.160156-.425781-19.71875-9.585937-23.582031zm0 0" fill="#6770e6"/><path d="m264.027344 39.003906c-3.867188-9.160156.425781-19.714844 9.585937-23.582031 8.640625-3.648437 18.523438-.027344 22.855469 8.082031l-5.273438-12.5c-3.867187-9.160156-14.421874-13.449218-23.582031-9.582031-9.160156 3.867187-13.453125 14.421875-9.585937 23.582031zm0 0" fill="#6770e6"/><path d="m169.664062 227.929688c0 10.980468-8.898437 19.882812-19.878906 19.882812-10.980468 0-19.882812-8.902344-19.882812-19.882812 0-10.980469 8.902344-19.882813 19.882812-19.882813 10.980469 0 19.878906 8.902344 19.878906 19.882813zm0 0" fill="#6770e6"/></svg>