<?xml version="1.0" encoding="utf-8"?>
<!-- Generator: Adobe Illustrator 18.1.1, SVG Export Plug-In . SVG Version: 6.00 Build 0)  -->
<svg version="1.1" id="Layer_1" xmlns="http://www.w3.org/2000/svg" xmlns:xlink="http://www.w3.org/1999/xlink" x="0px" y="0px"
	 viewBox="-1333 412.4 198.1 34.3" enable-background="new -1333 412.4 198.1 34.3" xml:space="preserve">
<path fill="#0B1D51" d="M-1294.2,442h-15.9c-2.2,0-4.1-1.8-4.1-4.1v-15.9c0-2.2,1.8-4.1,4.1-4.1h15.9c2.2,0,4.1,1.8,4.1,4.1v15.9
	C-1290.1,440.2-1292,442-1294.2,442z M-1310.1,419c-1.7,0-3.1,1.4-3.1,3.1v15.9c0,1.7,1.4,3.1,3.1,3.1h15.9c1.7,0,3.1-1.4,3.1-3.1
	v-15.9c0-1.7-1.4-3.1-3.1-3.1H-1310.1z"/>
<path fill="#ffffff" d="M-1304.1,433.4c-0.1,0.6-0.8,0.9-1.4,0.8c-0.6-0.2-1-0.8-0.9-1.3c0.1-0.6,0.8-0.9,1.4-0.8
	C-1304.3,432.2-1303.9,432.8-1304.1,433.4z"/>
<ellipse transform="matrix(0.2449 -0.9695 0.9695 0.2449 -1409.3076 -934.1817)" fill="#ffffff" cx="-1304.4" cy="437.7" rx="1.1" ry="1.2"/>
<path fill="#ffffff" d="M-1296.3,431.7c-0.1,0.6-0.8,0.9-1.4,0.8c-0.6-0.2-1-0.8-0.9-1.3c0.2-0.6,0.8-0.9,1.4-0.8
	C-1296.5,430.5-1296.2,431.1-1296.3,431.7z"/>
<path fill="#ffffff" d="M-1298.6,435.7c-0.2,0.6-0.8,0.9-1.4,0.8c-0.6-0.2-1-0.8-0.9-1.3c0.2-0.6,0.8-0.9,1.4-0.8
	C-1298.8,434.5-1298.4,435.1-1298.6,435.7z"/>
<rect x="-1308.4" y="435.4" fill="#ffffff" width="1.4" height="1.4"/>
<rect x="-1302.1" y="429.4" fill="#ffffff" width="1.4" height="1.4"/>
<path fill="#ffffff" d="M-1306.3,428c-1.8,0-3.3-1.5-3.3-3.3c0-1.8,1.5-3.4,3.3-3.4c1.8,0,3.3,1.5,3.3,3.4
	C-1303,426.5-1304.4,428-1306.3,428z M-1306.3,422.1c-1.4,0-2.5,1.1-2.5,2.5c0,1.4,1.1,2.5,2.5,2.5c1.4,0,2.5-1.1,2.5-2.5
	C-1303.8,423.2-1304.9,422.1-1306.3,422.1z"/>
<rect x="-1295.5" y="424.9" transform="matrix(-0.6413 -0.7673 0.7673 -0.6413 -2451.9138 -295.0815)" fill="#ffffff" width="1.1" height="1.5"/>
<polygon fill="#ffffff" points="-1296.2,425.2 -1295.1,424.3 -1295.7,423.5 -1296.9,424.4 "/>
<path fill="#ffffff" d="M-1294.1,426.9l0.3-0.3c0.2-0.2,0.3-0.5,0.1-0.8l-1.1,0.9C-1294.6,427.1-1294.3,427.1-1294.1,426.9z"/>
<path fill="#ffffff" d="M-1296.1,423.1l-0.4-0.5c-0.2-0.2-0.5-0.3-0.8-0.1l-0.3,0.3c-0.2,0.2-0.3,0.5-0.1,0.8l0.4,0.5L-1296.1,423.1
	z"/>
<rect x="-1291" y="423.1" fill="#0B1D51" width="7.5" height="1"/>
<circle fill="#ffffff" cx="-1282.9" cy="423.7" r="1.9"/>
<path fill="#ffffff" d="M-1282.9,426.2c-1.3,0-2.4-1.1-2.4-2.4c0-1.3,1.1-2.4,2.4-2.4c1.3,0,2.4,1.1,2.4,2.4
	C-1280.5,425.1-1281.6,426.2-1282.9,426.2z M-1282.9,422.3c-0.8,0-1.4,0.6-1.4,1.4c0,0.8,0.6,1.4,1.4,1.4c0.8,0,1.4-0.6,1.4-1.4
	C-1281.5,423-1282.1,422.3-1282.9,422.3z"/>
<rect x="-1290.2" y="431.8" fill="#0B1D51" width="13.3" height="1"/>
<circle fill="#ffffff" cx="-1276.4" cy="432.4" r="1.9"/>
<path fill="#ffffff" d="M-1276.4,434.8c-1.3,0-2.4-1.1-2.4-2.4c0-1.3,1.1-2.4,2.4-2.4s2.4,1.1,2.4,2.4
	C-1273.9,433.7-1275,434.8-1276.4,434.8z M-1276.4,430.9c-0.8,0-1.4,0.6-1.4,1.4c0,0.8,0.6,1.4,1.4,1.4s1.4-0.6,1.4-1.4
	C-1274.9,431.6-1275.6,430.9-1276.4,430.9z"/>
<rect x="-1321.3" y="432.8" fill="#0B1D51" width="7.5" height="1"/>
<circle fill="#ffffff" cx="-1321.8" cy="433.2" r="1.9"/>
<path fill="#ffffff" d="M-1321.8,435.6c-1.3,0-2.4-1.1-2.4-2.4c0-1.3,1.1-2.4,2.4-2.4s2.4,1.1,2.4,2.4
	C-1319.4,434.5-1320.5,435.6-1321.8,435.6z M-1321.8,431.7c-0.8,0-1.4,0.6-1.4,1.4c0,0.8,0.6,1.4,1.4,1.4s1.4-0.6,1.4-1.4
	C-1320.4,432.4-1321,431.7-1321.8,431.7z"/>
<rect x="-1326.8" y="424.1" fill="#0B1D51" width="13.3" height="1"/>
<circle fill="#ffffff" cx="-1328.4" cy="424.5" r="1.9"/>
<path fill="#ffffff" d="M-1328.4,427c-1.3,0-2.4-1.1-2.4-2.4c0-1.3,1.1-2.4,2.4-2.4s2.4,1.1,2.4,2.4
	C-1326,425.9-1327,427-1328.4,427z M-1328.4,423.1c-0.8,0-1.4,0.6-1.4,1.4c0,0.8,0.6,1.4,1.4,1.4c0.8,0,1.4-0.6,1.4-1.4
	C-1327,423.8-1327.6,423.1-1328.4,423.1z"/>
<g>
</g>
</svg>
