<svg height="488pt" viewBox="-15 -26 488 488" width="488pt" xmlns="http://www.w3.org/2000/svg"><path d="m0 43.65625v347.765625c.03125 24.46875 19.851562 44.292969 44.320312 44.324219h5.585938c24.46875-.03125 44.296875-19.855469 44.328125-44.324219v-222.765625c.03125-34.128906 27.695313-61.785156 61.820313-61.824219h236.363281v-2.050781c-.03125-24.464844-19.859375-44.296875-44.324219-44.324219h-99.597656c-6.183594-.003906-12.074219-2.601562-16.25-7.164062l-36.144532-39.539063c-8.402343-9.175781-20.273437-14.40625-32.710937-14.421875h-119.070313c-24.46875.03125-44.2929682 19.855469-44.320312 44.324219zm0 0"/><path d="m457.5 391.421875v-222.765625c-.03125-24.46875-19.851562-44.292969-44.320312-44.324219h-257.125c-24.46875.03125-44.296876 19.855469-44.328126 44.324219v222.765625c.011719 16.707031-6.761718 32.703125-18.761718 44.324219h320.214844c24.46875-.03125 44.289062-19.855469 44.320312-44.324219zm-110.386719-102.636719h-53.75v53.75c0 4.835938-3.914062 8.75-8.75 8.75-4.828125 0-8.75-3.914062-8.75-8.75v-53.75h-53.75c-4.828125 0-8.75-3.914062-8.75-8.75 0-4.828125 3.921875-8.75 8.75-8.75h53.75v-53.75c0-4.828125 3.921875-8.75 8.75-8.75 4.835938 0 8.75 3.921875 8.75 8.75v53.75h53.75c4.835938 0 8.75 3.921875 8.75 8.75 0 4.835938-3.914062 8.75-8.75 8.75zm0 0"/></svg>